<svg id="Capa_1" enable-background="new 0 0 512.185 512.185" height="512" viewBox="0 0 512.185 512.185" width="512" xmlns="http://www.w3.org/2000/svg"><g><path d="m376.185 90.003c-35.277 0-68.608 10.427-93.853 29.36-.313.235-.617.476-.927.713-.045-.11-25.424-61.76-25.468-61.867-24.42-58.73-102.48-71.105-164.967-45.122-62.862 26.137-108.645 90.333-84.342 148.783 6.262 15.061 16.774 27.91 30.717 37.698-3.356 14.673-2.37 30.479 3.836 45.405 26.328 63.32 74.372 101.731 75.132 102.555l38.954 93.683 109.698-45.612c3.034 6.742 5.197 10.861 6.22 12.945v103.459h211v-103.459c.959-2.619 30-52.139 30-123.541v-90c0-57.897-61.009-105-136-105zm-341.856 60.349c-17.774-42.745 22.184-90.449 68.158-109.565 45.409-18.879 107.829-14.158 125.748 28.94 8.027 19.306 3.743 40.525-7.087 58.872-10.877 18.426-28.252 34.208-49.623 45.325-.331-4.835-1.442-9.636-3.357-14.242-9.548-22.963-35.86-33.825-58.828-24.275l-27.701 11.518c-13.006 5.408-23.68 14.08-31.485 24.668-7.07-5.95-12.453-13.132-15.825-21.241zm34.554 83.103c-9.526-22.912 1.363-49.302 24.275-58.828l27.7-11.518c7.654-3.182 16.426.435 19.609 8.092 3.183 7.653-.435 16.426-8.091 19.609l-41.552 17.277 11.518 27.701c.693-.288 68.845-28.626 69.252-28.795 32.574-13.544 59.347-35.969 75.388-63.143 2.478-4.198 4.652-8.437 6.537-12.697l5.014 12.06c-11.323 15.564-17.349 33.261-17.349 51.79 0 16.31 4.774 32.211 13.89 46.602-6.946 9.753-11.614 21.226-13.235 33.65l-110.223 45.83c-27.165-23.941-48.832-54.198-62.733-87.63zm102.567 168.538-23.036-55.402 93.74-38.977c1.734 20.352 5.794 40.518 12.05 59.97zm129.735 80.01v-62h151v62zm156.718-92h-162.436c-15.891-32.536-24.282-68.792-24.282-105 0-24.813 20.187-45 45-45h30c8.271 0 15 6.729 15 15s-6.729 15-15 15h-45v30h75c42.808 0 81.052-15.354 106-39.297v24.297c0 36.208-8.391 72.465-24.282 105zm-69.11-120.555c1.543-4.538 2.392-9.393 2.392-14.445 0-24.813-20.187-45-45-45h-30c-14.085 0-27.271 3.909-38.543 10.69-4.244-8.21-6.457-16.909-6.457-25.69 0-46.295 55.21-75 105-75 47.979 0 106 27.718 106 75 0 42.971-48.96 70.66-93.392 74.445z"/></g></svg>