<svg id="Capa_1" enable-background="new 0 0 512 512" height="512" viewBox="0 0 512 512" width="512" xmlns="http://www.w3.org/2000/svg"><g><path d="m365.146 361.718c-3.252-6.504-1.406-14.37 4.409-18.706l-1.626-172.178c-4.541-4.57-5.669-11.543-2.783-17.314l31.553-63.091c2.886-5.771 1.758-12.744-2.813-17.314-4.585-4.585-11.528-5.669-17.314-2.813l-63.091 31.553c-8.207 4.043-18.023.042-20.947-8.672l-22.31-67.998c-2.036-6.123-8.13-9.185-14.224-9.185s-12.188 3.062-14.224 9.185l-22.31 67.998c-2.981 8.882-13.011 12.684-20.947 8.672l-63.091-31.553c-5.801-2.886-12.744-1.802-17.314 2.813-4.57 4.57-5.698 11.543-2.813 17.314l31.553 63.076c2.886 5.786 1.758 12.759-2.783 17.329l-1.626 172.178c5.815 4.336 7.661 12.202 4.409 18.706l-31.553 63.091c-2.886 5.771-1.758 12.744 2.813 17.314 4.57 4.614 11.558 5.698 17.314 2.813l63.091-31.538c7.939-4.014 17.966-.207 20.947 8.672l22.31 63.677c2.037 6.122 7.764 10.253 14.224 10.253s12.188-4.131 14.224-10.254l22.31-63.677c2.928-8.721 12.777-12.728 20.947-8.672l63.091 31.538c5.742 2.856 12.759 1.772 17.314-2.813 4.57-4.57 5.698-11.543 2.813-17.314z" fill="#fed843"/><path d="m270.224 485.746 22.31-63.677c2.928-8.721 12.777-12.728 20.947-8.672l63.091 31.538c5.742 2.856 12.759 1.772 17.314-2.813 4.57-4.57 5.698-11.543 2.813-17.314l-31.553-63.091c-3.252-6.504-1.406-14.37 4.409-18.706l-1.626-172.178c-4.541-4.57-5.669-11.543-2.783-17.314l31.553-63.091c2.886-5.771 1.758-12.744-2.813-17.314-4.585-4.585-11.528-5.669-17.314-2.813l-63.091 31.553c-8.207 4.043-18.023.042-20.947-8.672l-22.31-67.998c-2.036-6.122-8.13-9.184-14.224-9.184v480c6.46 0 12.188-4.131 14.224-10.254z" fill="#fabe2c"/><path d="m391 196h-60c-41.353 0-75 33.647-75 75s33.647 75 75 75h47.578c26.316 0 51.833-13.81 72.422-30l15-30v-60z" fill="#d0004f"/><path d="m451 196c-24.11-17.154-50.22-28.792-79.799-26.1-22.8 2.1-40.201 21.9-40.201 44.7v41.4c0 16.5 13.5 30 30 30 15.759 0 30-12.989 30-30h75v-30z" fill="#ff435b"/><path d="m497 316h-46v-120h46c8.284 0 15 6.716 15 15v90c0 8.284-6.716 15-15 15z" fill="#29376d"/><path d="m121 196h60c41.353 0 75 33.647 75 75s-33.647 75-75 75h-47.578c-26.316 0-51.833-13.81-72.422-30l-15-30v-60z" fill="#ff435b"/><path d="m61 196c24.11-17.154 50.22-28.792 79.799-26.1 22.8 2.1 40.201 21.9 40.201 44.7v41.4c0 16.5-13.5 30-30 30-15.759 0-30-12.989-30-30h-75v-30z" fill="#ff7b4a"/><path d="m15 316h46v-120h-46c-8.284 0-15 6.716-15 15v90c0 8.284 6.716 15 15 15z" fill="#47568c"/></g></svg>