<svg height="512pt" viewBox="-61 0 512 512" width="512pt" xmlns="http://www.w3.org/2000/svg"><path d="m233.125 0h-46.25c-86.5 0-156.875 70.820312-156.875 157.875 0 23.925781 10.175781 45.507812 26.40625 60.6875-33.144531 14.289062-56.40625 47.28125-56.40625 85.605469 0 31.191406 15.476562 60.144531 41.410156 77.46875l48.589844 33.273437v97.089844h240v-100.535156c39.074219-60.242188 60-131.46875 60-203.632813v-49.957031c0-87.054688-70.375-157.875-156.875-157.875zm-113.125 482v-60h68.070312c-5.121093 8.832031-8.070312 19.074219-8.070312 30s2.949219 21.167969 8.070312 30zm180 0c-6.894531 0-53.53125 0-60 0-16.542969 0-30-13.457031-30-30s13.457031-30 30-30h60zm60-274.167969c0 64.792969-18.835938 129.863281-53.15625 184.167969-10.089844 0-186.882812 0-197.199219 0-.25-.171875-51.273437-35.109375-51.515625-35.277344-17.613281-11.742187-28.128906-31.386718-28.128906-52.554687 0-34.832031 28.335938-63.167969 63.164062-63.167969h56.835938c16.542969 0 30 13.457031 30 30s-13.457031 30-30 30h-60v30h60c33.085938 0 60-26.914062 60-60h15c57.898438 0 105-47.101562 105-105v-14h-30v14c0 41.355469-33.644531 75-75 75h-23.070312c-10.394532-17.914062-29.769532-30-51.929688-30h-36.875c-29.292969 0-53.125-23.832031-53.125-53.125 0-70.511719 56.914062-127.875 126.875-127.875h46.25c69.960938 0 126.875 57.363281 126.875 127.875zm0 0"/></svg>