<svg id="Capa_1" enable-background="new 0 0 512 512" height="512" viewBox="0 0 512 512" width="512" xmlns="http://www.w3.org/2000/svg"><path d="m343.568 30h95.864v-30h-366.864v512h90v-391.103l90.898-90.897h60.102v20.358l-39.71 53.334h-29.056v260.145c0 26.95 21.925 48.875 48.875 48.875h69.783c26.95 0 48.875-21.925 48.875-48.875v-260.145h-29.056l-39.711-53.334zm-211 452h-30v-452h30zm30-403.528v-48.472h48.472zm219.766 55.22v34.198h-107.533v-34.198zm0 64.199v120.623h-107.533v-120.623zm-18.875 184.821h-69.783c-10.408 0-18.875-8.467-18.875-18.875v-15.323h107.533v15.323c0 10.408-8.467 18.875-18.875 18.875zm-52.199-279.02 17.308-23.246 17.309 23.246z"/></svg>