<svg height="512pt" viewBox="0 -31 512 512" width="512pt" xmlns="http://www.w3.org/2000/svg"><path d="m0 450h512c0-12.695312 0-437.308594 0-450h-90v30h-332v-30h-90zm482-30h-452v-180h452zm-150-300v30h-152v-30zm-152-30v-30h152v30zm242 60h-60v-30h60zm-272 0h-60v-30h60zm272 30v30h-332v-30zm60-150v180h-30v-180zm-60 60h-60v-30h60zm-272-30v30h-60v-30zm-90-30v180h-30v-180zm0 0"/><path d="m201.710938 410.308594 54.289062-28.542969 54.289062 28.542969-10.367187-60.453125 43.925781-42.8125-60.703125-8.820313-27.144531-55.003906-27.144531 55-60.703125 8.820312 43.925781 42.816407zm47.066406-84.667969 7.222656-14.636719 7.222656 14.636719 16.15625 2.347656-11.691406 11.394531 2.761719 16.085938-14.449219-7.597656-14.445312 7.597656 2.757812-16.085938-11.6875-11.394531zm0 0"/><path d="m60 330h90v30h-90zm0 0"/><path d="m362 330h90v30h-90zm0 0"/></svg>